<svg width="18" height="20" viewBox="0 0 18 20" fill="none" xmlns="http://www.w3.org/2000/svg">
<g clip-path="url(#clip0_16_3046)">
<path d="M14.4498 10.6051C14.4779 13.626 17.1 14.6313 17.129 14.6441C17.1068 14.715 16.71 16.0767 15.7476 17.4832C14.9156 18.6993 14.052 19.9109 12.6917 19.9359C11.3552 19.9606 10.9254 19.1434 9.39724 19.1434C7.86956 19.1434 7.39203 19.9109 6.12676 19.9606C4.81375 20.0103 3.81387 18.6457 2.97502 17.434C1.26073 14.9557 -0.0493008 10.4309 1.70975 7.37651C2.58359 5.85968 4.1453 4.89924 5.84029 4.8746C7.12962 4.85003 8.34664 5.74203 9.13483 5.74203C9.92251 5.74203 11.4014 4.66933 12.9562 4.82686C13.607 4.85397 15.434 5.08971 16.6071 6.80692C16.5125 6.86552 14.4271 8.07956 14.4498 10.6051M11.9379 3.18724C12.635 2.34343 13.1042 1.16883 12.9762 0C11.9713 0.040381 10.7564 0.669587 10.0356 1.51289C9.38968 2.25975 8.82403 3.45505 8.97667 4.6007C10.0967 4.68737 11.2407 4.03156 11.9379 3.18724Z" fill="black"/>
</g>
<defs>
<clipPath id="clip0_16_3046">
<rect width="16.26" height="20" fill="white" transform="translate(0.871094)"/>
</clipPath>
</defs>
</svg>
