<svg width="221" height="233" viewBox="0 0 221 233" fill="none" xmlns="http://www.w3.org/2000/svg">
<mask id="mask0_70_4534" style="mask-type:luminance" maskUnits="userSpaceOnUse" x="0" y="0" width="221" height="233">
<path d="M220.5 0H0.5V233H220.5V0Z" fill="white"/>
</mask>
<g mask="url(#mask0_70_4534)">
<mask id="mask1_70_4534" style="mask-type:luminance" maskUnits="userSpaceOnUse" x="-38" y="0" width="296" height="235">
<path d="M-37.0703 0H257.708V234.148H-37.0703V0Z" fill="white"/>
</mask>
<g mask="url(#mask1_70_4534)">
<mask id="mask2_70_4534" style="mask-type:luminance" maskUnits="userSpaceOnUse" x="-38" y="0" width="296" height="235">
<path d="M257.707 0H-37.0713V234.148H257.707V0Z" fill="white"/>
</mask>
<g mask="url(#mask2_70_4534)">
<g opacity="0.5">
<path d="M176.268 184.766L176.912 180.596L173.44 180.423L172.797 184.594L176.268 184.766Z" fill="#438CD4"/>
</g>
<path d="M169.496 155.363L169.427 151.506L165.451 151.524L165.52 155.381L169.496 155.363Z" fill="#2500C3"/>
<g opacity="0.5">
<path d="M181.219 136.663L181.025 134.776L176.856 134.904L177.051 136.791L181.219 136.663Z" fill="#5358FD"/>
</g>
<path d="M177.762 180.822L178.093 178.698L174.534 178.523L174.203 180.646L177.762 180.822Z" fill="#333C45"/>
<g opacity="0.5">
<path d="M166.631 223.318L165.334 221.262L166.572 220.38L164.383 219.841L162.941 217.8L162.885 219.522L160.755 219.143L162.91 220.746L163.036 222.553L164.423 221.822L166.631 223.318Z" fill="#2F91F2"/>
</g>
<path d="M159.152 135.837L159.716 133.965L161.886 133.821L160.048 132.652L160.442 130.737L158.742 131.886L156.815 130.847L157.603 132.726L156.019 133.999L158.205 134.011L159.152 135.837Z" fill="#2384E5"/>
<g opacity="0.5">
<path d="M177.312 122.473C178.37 122.3 178.917 121.326 178.532 120.297C178.147 119.269 176.975 118.574 175.917 118.746C174.859 118.919 174.312 119.894 174.697 120.922C175.082 121.95 176.254 122.645 177.312 122.473Z" fill="#438CD4"/>
</g>
<path d="M176.684 179.959C175.415 182.336 173.799 184.676 174.424 187.249C174.876 189.111 176.41 190.576 178.114 191.989" stroke="#5358FD" stroke-width="1.62714" stroke-linecap="round" stroke-linejoin="round"/>
<path d="M159.383 231.468C157.822 234.054 154.748 236.367 154.32 239.228" stroke="#2384E5" stroke-width="1.25284" stroke-linecap="round" stroke-linejoin="round"/>
<g opacity="0.5">
<path d="M174.279 157.523L175.299 154.209L170.813 153.663L169.793 156.977L174.279 157.523Z" fill="#333C45"/>
</g>
<path d="M184.188 154.47L185.047 151.158L180.508 150.724L179.648 154.035L184.188 154.47Z" fill="#333C45"/>
<g opacity="0.5">
<path d="M192.828 136.248L193.008 134.5L188.473 134.361L188.293 136.109L192.828 136.248Z" fill="#2F91F2"/>
</g>
<path d="M190.409 181.788L192.066 181.686L191.368 177.558L189.711 177.66L190.409 181.788Z" fill="#5358FD"/>
<path d="M173.353 135.624L174.354 133.941L176.736 133.94L174.988 132.756L175.814 131.022L173.733 131.973L171.862 130.902L172.324 132.675L170.341 133.746L172.708 133.891L173.353 135.624Z" fill="#007D7C"/>
<g opacity="0.5">
<path d="M149.053 147.182C150.275 146.969 150.979 146.064 150.625 145.162C150.271 144.261 148.991 143.702 147.769 143.915C146.548 144.128 145.844 145.033 146.198 145.935C146.552 146.836 147.832 147.395 149.053 147.182Z" fill="#438CD4"/>
</g>
<path d="M210.02 219.28C211.55 219.302 212.824 218.733 212.863 218.01C212.901 217.287 211.689 216.682 210.159 216.66C208.628 216.638 207.354 217.207 207.316 217.93C207.277 218.653 208.489 219.258 210.02 219.28Z" fill="#2500C3"/>
</g>
<mask id="mask3_70_4534" style="mask-type:luminance" maskUnits="userSpaceOnUse" x="-38" y="0" width="296" height="235">
<path d="M-37.0703 0H257.708V234.148H-37.0703V0Z" fill="white"/>
</mask>
<g mask="url(#mask3_70_4534)">
<g opacity="0.5">
<path d="M32.777 202.724L35.528 206.681L32.7276 207.809L29.9766 203.852L32.777 202.724Z" fill="#438CD4"/>
</g>
<path d="M55.9721 171.072L57.894 175.069L54.6172 175.852L52.6953 171.855L55.9721 171.072Z" fill="#2500C3"/>
<g opacity="0.5">
<path d="M42.367 152.432L43.4193 154.359L39.8374 155.389L38.7852 153.463L42.367 152.432Z" fill="#5358FD"/>
</g>
<path d="M48.3174 203.685L49.728 205.707L46.8597 206.859L45.4492 204.836L48.3174 203.685Z" fill="#333C45"/>
<path d="M57.9384 149.402L59.5978 151.08L61.4863 150.629L60.7097 152.274L62.2562 154.041L60.1169 153.38L59.1842 154.922L58.6386 152.868L56.5157 152.055L58.3178 151.447L57.9384 149.402Z" fill="#2384E5"/>
<g opacity="0.5">
<path d="M36.3434 138.278C37.3499 138.131 38.4696 138.884 38.842 139.959C39.2144 141.033 38.6995 142.025 37.6929 142.172C36.6864 142.32 35.5667 141.567 35.1943 140.492C34.8219 139.417 35.3368 138.425 36.3434 138.278Z" fill="#438CD4"/>
</g>
<path d="M40.805 207.159C38.8952 209.933 34.7248 211.915 32.7527 214.733" stroke="#5358FD" stroke-width="1.30432" stroke-linecap="round" stroke-linejoin="round"/>
<g opacity="0.5">
<path d="M38.7351 173.97L37.4309 177.063L32.8207 176.168L34.125 173.074L38.7351 173.97Z" fill="#333C45"/>
</g>
<path d="M43.3874 171.559L42.3385 174.689L37.6386 174.041L38.6875 170.91L43.3874 171.559Z" fill="#333C45"/>
<g opacity="0.5">
<path d="M33.066 153.167L32.1777 154.808L27.8499 153.551L28.7383 151.91L33.066 153.167Z" fill="#2F91F2"/>
</g>
<path d="M34.7658 203.676L35.656 204.988L30.9332 206.869L30.043 205.557L34.7658 203.676Z" fill="#5358FD"/>
<path d="M46.0108 149.823L45.9194 151.629L48.121 152.337L45.7893 152.879L45.5058 154.677L44.1563 153.206L41.7794 153.609L43.277 152.159L42.0915 150.609L44.3667 151.184L46.0108 149.823Z" fill="#007D7C"/>
<g opacity="0.5">
<path d="M67.6171 166.518C68.7273 167.147 69.1129 168.219 68.4777 168.91C67.8425 169.6 66.4254 169.651 65.3152 169.022C64.205 168.393 63.8193 167.322 64.4545 166.631C65.0897 165.94 66.5069 165.889 67.6171 166.518Z" fill="#438CD4"/>
</g>
</g>
</g>
<mask id="mask4_70_4534" style="mask-type:luminance" maskUnits="userSpaceOnUse" x="19" y="26" width="175" height="207">
<path d="M19.6484 26.3984H193.047V232.999H19.6484V26.3984Z" fill="white"/>
</mask>
<g mask="url(#mask4_70_4534)">
<mask id="mask5_70_4534" style="mask-type:luminance" maskUnits="userSpaceOnUse" x="-31" y="3" width="290" height="230">
<path d="M-30.9258 3.44336H258.073V233H-30.9258V3.44336Z" fill="white"/>
</mask>
<g mask="url(#mask5_70_4534)">
<g opacity="0.5">
<path d="M103.399 186.754L97.8744 186.257L98.55 183.502L104.074 184L103.399 186.754Z" fill="#438CD4"/>
</g>
<g opacity="0.5">
<path d="M58.9407 196.651L56.2509 196.421L56.8844 193.753L59.5742 193.982L58.9407 196.651Z" fill="#5358FD"/>
</g>
<path d="M99.6019 213.073L101.176 215.172L102.523 214.923L102.244 216.657L103.748 218.839L102.002 217.812L101.585 219.41L100.785 217.041L99.0222 215.847L100.274 215.41L99.6019 213.073Z" fill="#007D7C"/>
<path d="M59.8863 215.383C60.5608 215.201 61.6196 216.048 62.2491 217.275C62.8786 218.501 62.8421 219.644 62.1676 219.826C61.493 220.009 60.4342 219.161 59.8047 217.935C59.1752 216.708 59.2117 215.565 59.8863 215.383Z" fill="#5358FD"/>
<g opacity="0.5">
<path d="M37.3485 207.375L34.9235 208.107L32.4812 203.721L34.9062 202.988L37.3485 207.375Z" fill="#2500C3"/>
</g>
<path d="M60.0763 169.131L63.2604 169.063L63.6059 173.687L60.4219 173.756L60.0763 169.131Z" fill="#333C45"/>
<g opacity="0.5">
<path d="M40.7591 208.306L39.5781 208.665L37.2526 204.338L38.4336 203.979L40.7591 208.306Z" fill="#007D7C"/>
</g>
<path d="M108.034 185.001L107.659 186.447L102.062 185.842L102.438 184.396L108.034 185.001Z" fill="#5358FD"/>
</g>
</g>
<mask id="mask6_70_4534" style="mask-type:luminance" maskUnits="userSpaceOnUse" x="27" y="26" width="175" height="207">
<path d="M27.9531 26.3984H201.352V232.999H27.9531V26.3984Z" fill="white"/>
</mask>
<g mask="url(#mask6_70_4534)">
<mask id="mask7_70_4534" style="mask-type:luminance" maskUnits="userSpaceOnUse" x="-38" y="3" width="290" height="230">
<path d="M251.207 3.44336H-37.7913V233H251.207V3.44336Z" fill="white"/>
</mask>
<g mask="url(#mask7_70_4534)">
<g opacity="0.5">
<path d="M109.38 163.979L109.757 168.61L113.268 168.528L112.891 163.896L109.38 163.979Z" fill="#438CD4"/>
</g>
<g opacity="0.5">
<path d="M157.051 176.155L157.237 178.49L160.799 178.41L160.613 176.074L157.051 176.155Z" fill="#5358FD"/>
</g>
<path d="M115.112 191.966L112.835 190.723L113.469 189.415L111.213 189.887L108.813 188.719L109.696 190.253L107.578 190.839L110.38 191.316L111.471 192.846L112.32 191.606L115.112 191.966Z" fill="#007D7C"/>
<path d="M162.896 193.248C163.287 192.585 162.464 191.679 161.058 191.224C159.653 190.769 158.194 190.937 157.803 191.599C157.412 192.262 158.235 193.168 159.641 193.623C161.046 194.078 162.505 193.91 162.896 193.248Z" fill="#5358FD"/>
<g opacity="0.5">
<path d="M178.883 180.65L177.73 178.14L172.453 179.328L173.605 181.838L178.883 180.65Z" fill="#2500C3"/>
</g>
<path d="M152.864 146.872L153.524 149.936L159.062 149.521L158.402 146.457L152.864 146.872Z" fill="#333C45"/>
<g opacity="0.5">
<path d="M173.06 182.734L172.472 181.437L167.096 182.714L167.684 184.012L173.06 182.734Z" fill="#007D7C"/>
</g>
<path d="M113.667 169.044L114.859 167.864L110.392 165.039L109.199 166.219L113.667 169.044Z" fill="#5358FD"/>
</g>
</g>
</g>
</svg>
