<svg width="20" height="20" viewBox="0 0 20 20" fill="none" xmlns="http://www.w3.org/2000/svg">
<path d="M18.1726 8.36727H17.5013V8.33268H10.0013V11.666H14.7109C14.0238 13.6064 12.1776 14.9993 10.0013 14.9993C7.24005 14.9993 5.0013 12.7606 5.0013 9.99935C5.0013 7.2381 7.24005 4.99935 10.0013 4.99935C11.2759 4.99935 12.4355 5.48018 13.3184 6.2656L15.6755 3.90852C14.1871 2.52143 12.1963 1.66602 10.0013 1.66602C5.39922 1.66602 1.66797 5.39727 1.66797 9.99935C1.66797 14.6014 5.39922 18.3327 10.0013 18.3327C14.6034 18.3327 18.3346 14.6014 18.3346 9.99935C18.3346 9.4406 18.2771 8.89518 18.1726 8.36727Z" fill="#FFC107"/>
<path d="M2.62891 6.1206L5.36682 8.12852C6.10766 6.29435 7.90182 4.99935 10.0014 4.99935C11.276 4.99935 12.4356 5.48018 13.3185 6.2656L15.6756 3.90852C14.1872 2.52143 12.1964 1.66602 10.0014 1.66602C6.80057 1.66602 4.02474 3.4731 2.62891 6.1206Z" fill="#FF3D00"/>
<path d="M10.0008 18.3336C12.1533 18.3336 14.1091 17.5099 15.5879 16.1703L13.0087 13.9878C12.1439 14.6454 11.0872 15.0011 10.0008 15.0003C7.83328 15.0003 5.99286 13.6182 5.29953 11.6895L2.58203 13.7832C3.9612 16.482 6.76203 18.3336 10.0008 18.3336Z" fill="#4CAF50"/>
<path d="M18.1712 8.36857H17.5V8.33398H10V11.6673H14.7096C14.3809 12.5908 13.7889 13.3978 13.0067 13.9886L13.0079 13.9877L15.5871 16.1702C15.4046 16.3361 18.3333 14.1673 18.3333 10.0007C18.3333 9.4419 18.2758 8.89648 18.1712 8.36857Z" fill="#1976D2"/>
</svg>
